# xmcd
#
# Track frame offsets: 
#        150
#        13269
#        26567
#        40301
#        51520
#        62964
#        76740
#        91385
#        105795
#        111523
#        127448
#        137718
#
# Disc length: 2051 seconds
#
# Revision: 0
# Processed by: cddbd v1.5.2PL0 Copyright (c) Steve Scherf et al.
# Submitted via: ExactAudioCopy v0.99pb4
#
DISCID=a908010c
DTITLE=Principles , The - The Best of - Vol II
DYEAR=1998
DGENRE=Gospel
TTITLE0=Wayfarin' Stranger
TTITLE1=The Rose Of Sharon
TTITLE2=Swing Low Sweet Chariot
TTITLE3=I'll Bear The Cross
TTITLE4=I'll Help You Carry Your Load
TTITLE5=Two Coats
TTITLE6=City Across Jordan
TTITLE7=Old Fashioned Mom And Dad
TTITLE8=Get All Excited
TTITLE9=The Sun Didn't Shine
TTITLE10=What Will You Do With Jesus
TTITLE11=Daddy, I Miss You
EXTD=
EXTT0=
EXTT1=
EXTT2=
EXTT3=
EXTT4=
EXTT5=
EXTT6=
EXTT7=
EXTT8=
EXTT9=
EXTT10=
EXTT11=
PLAYORDER=
